# WaveFront *.obj file (generated by Cheetah3D)

mtllib Kitchen.mtl

g Mesh2
v 0.215331 0.000000 -0.028664
v 0.194084 0.000000 -0.010302
v 0.194084 0.000000 -0.028664
v 0.215331 0.000000 -0.010302
v 0.912693 0.000000 0.000000
v 0.011284 0.000000 -0.010302
v 0.000000 0.000000 0.000000
v 0.011284 0.000000 -0.213865
v 0.011284 0.000000 -0.687553
v 0.000000 0.000000 -0.998582
v 0.050816 0.000000 -0.813851
v 0.640955 0.000000 -0.983507
v 0.912693 0.000000 -0.998582
v 0.000000 0.180821 -0.998582
v 0.912693 0.180821 -0.998582
v 0.000000 0.180821 0.000000
v 0.912693 0.180821 0.000000
v 0.897409 0.000000 -0.918709
v 0.897368 0.000000 -0.199549
v 0.860946 0.000000 -0.180486
v 0.720656 0.000000 -0.180486
v 0.657333 0.000000 -0.180486
v 0.320975 0.000000 -0.010302
v 0.215331 0.180821 -0.010302
v 0.320975 0.180821 -0.010302
v 0.215331 0.180821 -0.028664
v 0.194084 0.180821 -0.028664
v 0.194084 0.180821 -0.010302
v 0.011284 0.180821 -0.010302
v 0.011284 0.180821 -0.213865
v 0.268040 0.000000 -0.213865
v 0.268040 0.180821 -0.213865
v 0.011284 0.000000 -0.229077
v 0.011284 0.180821 -0.687553
v 0.011284 0.180821 -0.229077
v 0.050816 0.000000 -0.687553
v 0.050816 0.180821 -0.687553
v 0.050816 0.180821 -0.813851
v 0.353419 0.000000 -0.813851
v 0.353419 0.180821 -0.813851
v 0.353419 0.000000 -0.839460
v 0.410929 0.000000 -0.839460
v 0.410929 0.000000 -0.791384
v 0.460148 0.000000 -0.791384
v 0.460148 0.000000 -0.768936
v 0.640955 0.000000 -0.777330
v 0.688448 0.000000 -0.768936
v 0.688448 0.000000 -0.777330
v 0.640955 0.180821 -0.777330
v 0.688448 0.180821 -0.777330
v 0.640955 0.180821 -0.983507
v 0.897409 0.000000 -0.983507
v 0.897409 0.180821 -0.983507
v 0.897409 0.180821 -0.918709
v 0.876135 0.000000 -0.918709
v 0.876135 0.180821 -0.918709
v 0.876135 0.000000 -0.890818
v 0.879706 0.000000 -0.698981
v 0.879706 0.000000 -0.509462
v 0.897368 0.000000 -0.249934
v 0.897368 0.180821 -0.199549
v 0.897368 0.180821 -0.249934
v 0.860946 0.000000 -0.199549
v 0.860946 0.180821 -0.199549
v 0.860946 0.180821 -0.180486
v 0.720656 0.180821 -0.180486
v 0.720656 0.000000 -0.185910
v 0.720656 0.180821 -0.185910
v 0.657333 0.000000 -0.185910
v 0.657333 0.180821 -0.180486
v 0.657333 0.180821 -0.185910
v 0.320975 0.000000 -0.180532
v 0.320975 0.180821 -0.180532
v 0.879706 0.180821 -0.698981
v 0.876135 0.180821 -0.890818
v 0.799942 0.180821 -0.768936
v 0.799942 0.180821 -0.706973
v 0.629057 0.180821 -0.706973
v 0.629057 0.180821 -0.698981
v 0.629057 0.000000 -0.706973
v 0.629057 0.000000 -0.698981
v 0.799942 0.000000 -0.706973
v 0.799942 0.000000 -0.768936
v 0.735163 0.000000 -0.768936
v 0.735163 0.000000 -0.890818
v 0.735163 0.180821 -0.768936
v 0.735163 0.180821 -0.890818
v 0.879706 0.180821 -0.509462
v 0.860946 0.000000 -0.509462
v 0.860946 0.180821 -0.509462
v 0.860946 0.000000 -0.249934
v 0.860946 0.180821 -0.249934
v 0.353419 0.180821 -0.839460
v 0.410929 0.180821 -0.839460
v 0.410929 0.180821 -0.791384
v 0.460148 0.180821 -0.791384
v 0.460148 0.180821 -0.768936
v 0.688448 0.180821 -0.768936
v 0.268040 0.180821 -0.229077
v 0.268040 0.000000 -0.229077

vt -749.815002 157.479996
vt -627.633972 157.479996
vt -627.633972 0.000000
vt -749.815002 0.000000
vt -169.031998 24.964001
vt -169.031998 8.971880
vt -187.535995 24.964001
vt -187.535995 8.971880
vt -794.882019 0.000000
vt -9.827260 8.971880
vt 0.000000 0.000000
vt -9.827260 186.259003
vt -9.827260 598.802979
vt 0.000000 869.684998
vt -44.256401 708.799011
vt -558.221008 856.554993
vt -794.882019 869.684998
vt -794.882019 157.479996
vt 0.000000 157.479996
vt -869.684998 157.479996
vt -869.684998 0.000000
vt 794.882019 157.479996
vt 794.882019 0.000000
vt 869.684998 157.479996
vt 869.684998 0.000000
vt -781.570984 800.120972
vt -781.536011 173.791000
vt -749.815002 157.188004
vt -627.633972 157.188004
vt -572.484985 157.188004
vt -279.544006 8.971880
vt -279.544006 157.479996
vt -187.535995 157.479996
vt -187.535995 0.000000
vt -279.544006 0.000000
vt 8.971880 157.479996
vt 24.964001 157.479996
vt 24.964001 0.000000
vt 8.971880 0.000000
vt -169.031998 157.479996
vt -169.031998 0.000000
vt -24.964001 157.479996
vt -8.971880 157.479996
vt -8.971880 0.000000
vt -24.964001 0.000000
vt -9.827260 157.479996
vt -9.827260 0.000000
vt 186.259003 157.479996
vt 186.259003 0.000000
vt 9.827260 157.479996
vt 233.440994 157.479996
vt 233.440994 0.000000
vt 9.827260 0.000000
vt -233.440994 186.259003
vt -9.827260 199.507004
vt 199.507004 157.479996
vt 598.802979 157.479996
vt 598.802979 0.000000
vt 199.507004 0.000000
vt 44.256401 157.479996
vt 44.256401 0.000000
vt -44.256401 598.802979
vt 708.799011 157.479996
vt 708.799011 0.000000
vt 307.799988 157.479996
vt 307.799988 0.000000
vt -307.799988 731.101990
vt -307.799988 708.799011
vt -357.885986 731.101990
vt -357.885986 689.231995
vt -400.752014 689.231995
vt -400.752014 669.681030
vt -558.221008 676.992004
vt -599.583008 669.681030
vt -599.583008 676.992004
vt -599.583008 157.479996
vt -558.221008 157.479996
vt -558.221008 0.000000
vt -599.583008 0.000000
vt 676.992004 157.479996
vt 856.554993 157.479996
vt 856.554993 0.000000
vt 676.992004 0.000000
vt 558.221008 157.479996
vt 781.570984 157.479996
vt 781.570984 0.000000
vt 558.221008 0.000000
vt -781.570984 856.554993
vt -856.554993 157.479996
vt -800.120972 157.479996
vt -800.120972 0.000000
vt -856.554993 0.000000
vt -781.570984 157.479996
vt -763.044006 157.479996
vt -763.044006 0.000000
vt -781.570984 0.000000
vt -763.044006 800.120972
vt -763.044006 775.830017
vt -766.153992 608.755005
vt -766.153992 443.700012
vt -781.536011 217.673004
vt -217.673004 157.479996
vt -173.791000 157.479996
vt -173.791000 0.000000
vt -217.673004 0.000000
vt -781.536011 157.479996
vt -781.536011 0.000000
vt -749.815002 173.791000
vt -157.188004 157.479996
vt -157.188004 0.000000
vt 157.188004 157.479996
vt 161.912994 157.479996
vt 161.912994 0.000000
vt 157.188004 0.000000
vt -627.633972 161.912994
vt -572.484985 161.912994
vt -161.912994 157.479996
vt -161.912994 0.000000
vt -572.463013 157.479996
vt -279.522003 157.479996
vt -279.522003 0.000000
vt -572.463013 0.000000
vt -279.544006 157.229004
vt -157.229004 157.479996
vt -157.229004 0.000000
vt 279.544006 157.229004
vt 279.544006 8.971880
vt 187.535995 8.971880
vt 169.031998 8.971880
vt 9.827260 8.971880
vt 9.827260 186.259003
vt 9.827260 598.802979
vt 44.256401 708.799011
vt 558.221008 856.554993
vt 794.882019 869.684998
vt 781.570984 856.554993
vt 781.570984 800.120972
vt 781.536011 217.673004
vt 781.536011 173.791000
vt 749.815002 173.791000
vt 749.815002 157.188004
vt 627.633972 157.188004
vt 572.484985 161.912994
vt 572.484985 157.188004
vt 627.633972 161.912994
vt -572.484985 157.479996
vt -572.484985 0.000000
vt 766.153992 608.755005
vt 763.044006 800.120972
vt 763.044006 775.830017
vt 696.685974 669.681030
vt 696.685974 615.716003
vt 547.859009 615.716003
vt 547.859009 608.755005
vt -615.716003 157.479996
vt -608.755005 157.479996
vt -608.755005 0.000000
vt -615.716003 0.000000
vt -547.859009 615.716003
vt -547.859009 608.755005
vt -696.685974 615.716003
vt -696.685974 669.681030
vt -640.268005 669.681030
vt -640.268005 775.830017
vt -775.830017 157.479996
vt -669.681030 157.479996
vt -669.681030 0.000000
vt -775.830017 0.000000
vt 640.268005 157.479996
vt 696.685974 157.479996
vt 696.685974 0.000000
vt 640.268005 0.000000
vt -696.685974 157.479996
vt -547.859009 157.479996
vt -547.859009 0.000000
vt -696.685974 0.000000
vt 640.268005 669.681030
vt 640.268005 775.830017
vt -640.268005 157.479996
vt -640.268005 0.000000
vt 547.859009 157.479996
vt 766.153992 157.479996
vt 766.153992 0.000000
vt 547.859009 0.000000
vt -443.700012 157.479996
vt -443.700012 0.000000
vt -766.153992 157.479996
vt -766.153992 0.000000
vt -749.815002 443.700012
vt -749.815002 217.673004
vt 749.815002 157.479996
vt 781.536011 157.479996
vt 781.536011 0.000000
vt 749.815002 0.000000
vt 749.815002 217.673004
vt 749.815002 443.700012
vt 766.153992 443.700012
vt 307.799988 731.101990
vt 307.799988 708.799011
vt 731.101990 157.479996
vt 731.101990 0.000000
vt 357.885986 157.479996
vt 357.885986 0.000000
vt -731.101990 157.479996
vt -689.231995 157.479996
vt -689.231995 0.000000
vt -731.101990 0.000000
vt 400.752014 157.479996
vt 400.752014 0.000000
vt 599.583008 157.479996
vt 599.583008 0.000000
vt 669.681030 157.479996
vt 669.681030 0.000000
vt 599.583008 676.992004
vt 599.583008 669.681030
vt 558.221008 676.992004
vt 400.752014 689.231995
vt 400.752014 669.681030
vt 357.885986 731.101990
vt 357.885986 689.231995
vt 44.256401 598.802979
vt 9.827260 199.507004
vt 233.440994 186.259003
vt 233.440994 199.507004
vt -233.440994 199.507004
vt -233.440994 157.479996
vt -233.440994 0.000000
vt 169.031998 24.964001
vt 187.535995 24.964001

vn 0.000000 0.000000 -1.000000
vn 0.000000 -1.000000 0.000000
vn -1.000000 0.000000 0.000000
vn 0.000000 0.000000 1.000000
vn 1.000000 0.000000 0.000000
vn 0.000000 0.000000 0.000000
vn 0.000000 1.000000 0.000000

usemtl FrontColor
f 20/4/1 21/3/1 66/2/1 65/1/1
f 1/7/2 2/6/2 3/5/2
f 4/8/2 2/6/2 1/7/2
f 5/9/2 2/6/2 4/8/2
f 5/9/2 6/10/2 2/6/2
f 7/11/2 6/10/2 5/9/2
f 6/10/2 7/11/2 8/12/2
f 7/11/2 9/13/2 8/12/2
f 10/14/2 9/13/2 7/11/2
f 9/13/2 10/14/2 11/15/2
f 11/15/2 10/14/2 12/16/2
f 12/16/2 10/14/2 13/17/2
f 13/9/1 10/11/1 14/19/1 15/18/1
f 10/21/3 7/11/3 16/19/3 14/20/3
f 7/11/4 5/23/4 17/22/4 16/19/4
f 5/11/5 13/25/5 15/24/5 17/19/5
f 5/9/2 18/26/2 13/17/2
f 5/9/2 19/27/2 18/26/2
f 5/9/2 20/28/2 19/27/2
f 5/9/2 21/29/2 20/28/2
f 5/9/2 22/30/2 21/29/2
f 5/9/2 23/31/2 22/30/2
f 5/9/2 4/8/2 23/31/2
f 23/35/1 4/34/1 24/33/1 25/32/1
f 4/39/5 1/38/5 26/37/5 24/36/5
f 1/34/1 3/41/1 27/40/1 26/33/1
f 3/45/3 2/44/3 28/43/3 27/42/3
f 2/41/1 6/47/1 29/46/1 28/40/1
f 6/39/5 8/49/5 30/48/5 29/36/5
f 8/53/4 31/52/4 32/51/4 30/50/4
f 8/12/2 33/55/2 31/54/2
f 33/55/6 8/12/6 9/13/6
f 33/59/5 9/58/5 34/57/5 35/56/5
f 9/53/4 36/61/4 37/60/4 34/50/4
f 36/62/2 9/13/2 11/15/2
f 36/58/5 11/64/5 38/63/5 37/57/5
f 11/61/4 39/66/4 40/65/4 38/60/4
f 39/68/2 11/15/2 41/67/2
f 11/15/2 12/16/2 41/67/2
f 41/67/2 12/16/2 42/69/2
f 42/69/2 12/16/2 43/70/2
f 43/70/2 12/16/2 44/71/2
f 44/71/2 12/16/2 45/72/2
f 46/73/2 45/72/2 12/16/2
f 45/72/2 46/73/2 47/74/2
f 47/74/2 46/73/2 48/75/2
f 48/79/1 46/78/1 49/77/1 50/76/1
f 46/83/5 12/82/5 51/81/5 49/80/5
f 12/87/4 52/86/4 53/85/4 51/84/4
f 12/16/2 13/17/2 52/88/2
f 52/88/2 13/17/2 18/26/2
f 52/92/3 18/91/3 54/90/3 53/89/3
f 18/96/1 55/95/1 56/94/1 54/93/1
f 18/26/2 57/98/2 55/97/2
f 57/98/2 18/26/2 58/99/2
f 58/99/2 18/26/2 59/100/2
f 59/100/2 18/26/2 60/101/2
f 60/101/2 18/26/2 19/27/2
f 60/105/3 19/104/3 61/103/3 62/102/3
f 19/107/1 63/4/1 64/1/1 61/106/1
f 19/27/2 20/28/2 63/108/2
f 63/104/3 20/110/3 65/109/3 64/103/3
f 21/114/5 67/113/5 68/112/5 66/111/5
f 21/29/2 22/30/2 67/115/2
f 67/115/2 22/30/2 69/116/2
f 69/118/3 22/110/3 70/109/3 71/117/3
f 22/122/1 72/121/1 73/120/1 70/119/1
f 22/30/2 23/31/2 72/123/2
f 72/125/3 23/44/3 25/43/3 73/124/3
f 25/127/7 17/23/7 73/126/7
f 24/128/7 17/23/7 25/127/7
f 28/129/7 17/23/7 24/128/7
f 29/130/7 17/23/7 28/129/7
f 29/130/7 16/11/7 17/23/7
f 16/11/7 29/130/7 14/14/7
f 30/131/7 14/14/7 29/130/7
f 34/132/7 14/14/7 30/131/7
f 38/133/7 14/14/7 34/132/7
f 51/134/7 14/14/7 38/133/7
f 14/14/7 51/134/7 15/135/7
f 15/135/7 51/134/7 53/136/7
f 15/135/7 53/136/7 17/23/7
f 54/137/7 17/23/7 53/136/7
f 62/138/7 17/23/7 54/137/7
f 61/139/7 17/23/7 62/138/7
f 64/140/7 17/23/7 61/139/7
f 65/141/7 17/23/7 64/140/7
f 66/142/7 17/23/7 65/141/7
f 71/143/7 17/23/7 66/142/7
f 70/144/7 17/23/7 71/143/7
f 73/126/7 17/23/7 70/144/7
f 68/145/7 71/143/7 66/142/7
f 67/3/1 69/147/1 71/146/1 68/2/1
f 54/137/7 74/148/7 62/138/7
f 56/149/7 74/148/7 54/137/7
f 75/150/7 74/148/7 56/149/7
f 76/151/7 74/148/7 75/150/7
f 77/152/7 74/148/7 76/151/7
f 78/153/7 74/148/7 77/152/7
f 74/148/7 78/153/7 79/154/7
f 80/158/3 81/157/3 79/156/3 78/155/3
f 82/161/2 81/160/2 80/159/2
f 81/160/2 82/161/2 58/99/2
f 58/99/2 82/161/2 57/98/2
f 83/162/2 57/98/2 82/161/2
f 84/163/2 57/98/2 83/162/2
f 57/98/2 84/163/2 85/164/2
f 85/168/3 84/167/3 86/166/3 87/165/3
f 84/172/4 83/171/4 76/170/4 86/169/4
f 83/167/3 82/158/3 77/155/3 76/166/3
f 82/176/1 80/175/1 78/174/1 77/173/1
f 76/151/7 87/178/7 86/177/7
f 87/178/7 76/151/7 75/150/7
f 57/95/1 85/180/1 87/179/1 75/94/1
f 55/91/3 57/168/3 75/165/3 56/90/3
f 81/184/4 58/183/4 74/182/4 79/181/4
f 58/157/3 59/186/3 88/185/3 74/156/3
f 59/188/1 89/4/1 90/1/1 88/187/1
f 59/100/2 91/190/2 89/189/2
f 91/190/2 59/100/2 60/101/2
f 91/194/4 60/193/4 62/192/4 92/191/4
f 62/138/7 90/196/7 92/195/7
f 90/196/7 62/138/7 88/197/7
f 88/197/7 62/138/7 74/148/7
f 89/186/3 91/105/3 92/102/3 90/185/3
f 51/134/7 38/133/7 93/198/7
f 93/198/7 38/133/7 40/199/7
f 39/64/5 41/201/5 93/200/5 40/63/5
f 41/66/4 42/203/4 94/202/4 93/65/4
f 42/207/3 43/206/3 95/205/3 94/204/3
f 43/203/4 44/209/4 96/208/4 95/202/4
f 44/206/3 45/167/3 97/166/3 96/205/3
f 45/209/4 47/211/4 98/210/4 97/208/4
f 47/213/5 48/83/5 50/80/5 98/212/5
f 49/216/7 98/215/7 50/214/7
f 96/217/7 98/215/7 49/216/7
f 98/215/7 96/217/7 97/218/7
f 51/134/7 96/217/7 49/216/7
f 51/134/7 94/219/7 96/217/7
f 51/134/7 93/198/7 94/219/7
f 96/217/7 94/219/7 95/220/7
f 38/133/7 34/132/7 37/221/7
f 34/132/6 30/131/6 35/222/6
f 32/223/7 35/222/7 30/131/7
f 35/222/7 32/223/7 99/224/7
f 31/49/5 100/59/5 99/56/5 32/48/5
f 31/54/2 33/55/2 100/225/2
f 100/227/1 33/47/1 35/46/1 99/226/1
f 28/129/7 24/128/7 27/228/7
f 26/229/7 27/228/7 24/128/7

usemtl default

g Mesh3
v 0.244145 0.000000 -0.533050
v 0.253535 0.000000 -0.541734
v 0.418122 0.000000 -0.533050
v 0.253535 0.000000 -0.695432
v 0.244145 0.000000 -0.701150
v 0.575810 0.000000 -0.701150
v 0.244145 0.180821 -0.701150
v 0.575810 0.180821 -0.701150
v 0.244145 0.180821 -0.533050
v 0.418122 0.180821 -0.533050
v 0.418122 0.000000 -0.540582
v 0.418122 0.180821 -0.540582
v 0.407232 0.000000 -0.541734
v 0.253535 0.180821 -0.541734
v 0.407232 0.180821 -0.541734
v 0.253535 0.180821 -0.695432
v 0.407232 0.000000 -0.695432
v 0.407232 0.180821 -0.695432
v 0.431161 0.000000 -0.692923
v 0.565422 0.000000 -0.692923
v 0.565422 0.000000 -0.547362
v 0.575810 0.000000 -0.540582
v 0.431161 0.000000 -0.547362
v 0.431161 0.180821 -0.692923
v 0.431161 0.180821 -0.547362
v 0.575810 0.180821 -0.540582
v 0.565422 0.180821 -0.547362
v 0.565422 0.180821 -0.692923

vt 364.151001 157.479996
vt 501.484985 157.479996
vt 501.484985 0.000000
vt 364.151001 0.000000
vt -220.807999 605.664978
vt -212.630997 464.246002
vt -220.807999 471.806000
vt -212.630997 610.646973
vt -501.484985 610.646973
vt -501.484985 157.479996
vt -212.630997 157.479996
vt -212.630997 0.000000
vt -501.484985 0.000000
vt -610.646973 157.479996
vt -464.246002 157.479996
vt -464.246002 0.000000
vt -610.646973 0.000000
vt 212.630997 157.479996
vt 212.630997 0.000000
vt 464.246002 157.479996
vt 470.804993 157.479996
vt 470.804993 0.000000
vt 464.246002 0.000000
vt -364.151001 470.804993
vt -354.665985 471.806000
vt -364.151001 464.246002
vt -354.665985 157.479996
vt -220.807999 157.479996
vt -220.807999 0.000000
vt -354.665985 0.000000
vt 471.806000 157.479996
vt 605.664978 157.479996
vt 605.664978 0.000000
vt 471.806000 0.000000
vt 220.807999 157.479996
vt 354.665985 157.479996
vt 354.665985 0.000000
vt 220.807999 0.000000
vt -354.665985 605.664978
vt -375.506989 603.481995
vt -492.436005 603.481995
vt -492.436005 476.710999
vt -501.484985 470.804993
vt -375.506989 476.710999
vt -605.664978 157.479996
vt -471.806000 157.479996
vt -471.806000 0.000000
vt -605.664978 0.000000
vt 354.665985 605.664978
vt 364.151001 464.246002
vt 354.665985 471.806000
vt 220.807999 471.806000
vt 212.630997 464.246002
vt 212.630997 610.646973
vt 220.807999 605.664978
vt 501.484985 610.646973
vt 375.506989 603.481995
vt 364.151001 470.804993
vt 375.506989 476.710999
vt 501.484985 470.804993
vt 492.436005 476.710999
vt 492.436005 603.481995
vt 375.506989 157.479996
vt 492.436005 157.479996
vt 492.436005 0.000000
vt 375.506989 0.000000
vt -603.481995 157.479996
vt -476.710999 157.479996
vt -476.710999 0.000000
vt -603.481995 0.000000
vt -492.436005 157.479996
vt -375.506989 157.479996
vt -375.506989 0.000000
vt -492.436005 0.000000
vt 476.710999 157.479996
vt 603.481995 157.479996
vt 603.481995 0.000000
vt 476.710999 0.000000
vt 610.646973 157.479996
vt 610.646973 0.000000

vn 0.000000 0.000000 1.000000
vn 0.000000 -1.000000 0.000000
vn 0.000000 0.000000 -1.000000
vn -1.000000 0.000000 0.000000
vn 1.000000 0.000000 0.000000
vn 0.000000 1.000000 0.000000

usemtl FrontColor
f 111/233/8 122/232/8 126/231/8 112/230/8
f 102/236/9 101/235/9 104/234/9
f 105/237/9 104/234/9 101/235/9
f 104/234/9 105/237/9 106/238/9
f 106/242/10 105/241/10 107/240/10 108/239/10
f 105/246/11 101/245/11 109/244/11 107/243/11
f 101/248/8 103/233/8 110/230/8 109/247/8
f 103/252/12 111/251/12 112/250/12 110/249/12
f 103/255/9 113/254/9 111/253/9
f 103/255/9 102/236/9 113/254/9
f 113/259/10 102/258/10 114/257/10 115/256/10
f 102/263/12 104/262/12 116/261/12 114/260/12
f 104/267/8 117/266/8 118/265/8 116/264/8
f 104/234/9 106/238/9 117/268/9
f 117/268/9 106/238/9 119/269/9
f 119/269/9 106/238/9 120/270/9
f 120/270/9 106/238/9 121/271/9
f 122/272/9 121/271/9 106/238/9
f 122/272/9 123/273/9 121/271/9
f 111/253/9 123/273/9 122/272/9
f 123/273/9 111/253/9 119/269/9
f 113/254/9 119/269/9 111/253/9
f 117/268/9 119/269/9 113/254/9
f 117/277/11 113/276/11 115/275/11 118/274/11
f 115/280/13 110/279/13 118/278/13
f 114/281/13 110/279/13 115/280/13
f 114/281/13 109/282/13 110/279/13
f 109/282/13 114/281/13 107/283/13
f 116/284/13 107/283/13 114/281/13
f 107/283/13 116/284/13 108/285/13
f 108/285/13 116/284/13 118/278/13
f 108/285/13 118/278/13 124/286/13
f 124/286/13 118/278/13 112/287/13
f 112/287/13 118/278/13 110/279/13
f 124/286/13 112/287/13 125/288/13
f 126/289/13 125/288/13 112/287/13
f 125/288/13 126/289/13 127/290/13
f 127/290/13 126/289/13 128/291/13
f 108/285/13 128/291/13 126/289/13
f 108/285/13 124/286/13 128/291/13
f 119/295/8 120/294/8 128/293/8 124/292/8
f 120/299/11 121/298/11 127/297/11 128/296/11
f 121/303/10 123/302/10 125/301/10 127/300/10
f 123/307/12 119/306/12 124/305/12 125/304/12
f 122/251/12 106/309/12 108/308/12 126/250/12
f 101/235/9 102/236/9 103/255/9

usemtl default

