# WaveFront *.obj file (generated by Cheetah3D)

mtllib bottle_one.mtl

g ChemicalCan01_A
v 0.000828 0.004100 0.014848
v 0.007509 0.000000 0.008950
v 0.011638 0.000000 0.003267
v 0.011638 -0.000000 -0.003757
v 0.007509 -0.000000 -0.009440
v 0.000828 -0.000000 -0.011611
v -0.005853 -0.000000 -0.009440
v -0.009982 -0.000000 -0.003757
v -0.009982 0.000000 0.003267
v -0.008043 0.004100 0.011965
v 0.000828 0.031376 0.014848
v 0.009700 0.031376 0.011965
v 0.015182 0.031376 0.004419
v 0.015182 0.031376 -0.004909
v 0.009700 0.031376 -0.012455
v -0.008043 0.031376 -0.012455
v -0.013526 0.031376 -0.004909
v -0.013526 0.031376 0.004419
v -0.008043 0.031376 0.011965
v 0.000828 0.000000 0.011121
v 0.009700 0.004100 0.011965
v 0.015182 0.004100 0.004419
v 0.015182 0.004100 -0.004909
v 0.009700 0.004100 -0.012455
v 0.000828 0.004100 -0.015338
v -0.008043 0.004100 -0.012455
v -0.013526 0.004100 -0.004909
v -0.013526 0.004100 0.004419
v -0.005853 0.000000 0.008950
v 0.000828 0.001025 0.013916
v 0.009152 0.001025 0.011212
v 0.014296 0.001025 0.004131
v 0.014296 0.001025 -0.004621
v 0.009152 0.001025 -0.011701
v 0.000828 0.001025 -0.014406
v -0.007495 0.001025 -0.011701
v -0.012640 0.001025 -0.004621
v -0.012640 0.001025 0.004131
v -0.007495 0.001025 0.011212
v 0.000828 0.050382 0.003617
v 0.002796 0.050382 0.002978
v 0.004012 0.050382 0.001304
v 0.004012 0.050382 -0.000765
v 0.002796 0.050382 -0.002438
v 0.000828 0.050382 -0.003077
v -0.001139 0.050382 -0.002438
v -0.002355 0.050382 -0.000765
v -0.002355 0.050382 0.001304
v -0.001139 0.050382 0.002978
v 0.000828 0.034084 0.014345
v 0.009404 0.034084 0.011559
v 0.014704 0.034084 0.004264
v 0.014704 0.034084 -0.003653
v 0.007551 0.036180 -0.006023
v 0.000828 0.031376 -0.015338
v -0.007407 0.034084 -0.011412
v -0.013048 0.034084 -0.003653
v -0.013048 0.034084 0.004264
v -0.007748 0.034084 0.011559
v 0.000828 0.051099 0.004303
v 0.003199 0.051099 0.003532
v 0.004664 0.051099 0.001516
v 0.004664 0.051099 -0.000976
v 0.003199 0.051099 -0.002993
v 0.000828 0.051099 -0.003763
v -0.001542 0.051099 -0.002993
v -0.003007 0.051099 -0.000976
v -0.003007 0.051099 0.001516
v -0.001542 0.051099 0.003532
v 0.000828 0.054548 0.004303
v 0.003199 0.054548 0.003532
v 0.004664 0.054548 0.001516
v 0.004664 0.054548 -0.000976
v 0.003199 0.054548 -0.002993
v 0.000828 0.054548 -0.003763
v -0.001542 0.054548 -0.002993
v -0.003007 0.054548 -0.000976
v -0.003007 0.054548 0.001516
v -0.001542 0.054548 0.003532
v 0.009064 0.034084 -0.011412
v -0.005894 0.036180 -0.006023
v 0.000828 0.036811 -0.006900
v 0.003569 0.048073 -0.003021
v 0.000828 0.044990 -0.004596
v -0.001912 0.048073 -0.003021
v 0.000828 0.035207 -0.011193
v 0.003578 0.034085 -0.013264
v -0.001917 0.034086 -0.013264
v 0.000829 0.049432 -0.010973
v 0.000829 0.046404 -0.009187
v 0.002327 0.048046 -0.010330
v -0.000668 0.048068 -0.010330
v 0.000828 0.050225 -0.006040
v 0.002562 0.048714 -0.005617
v 0.000828 0.046781 -0.005794
v -0.000905 0.048723 -0.005617
v 0.000828 0.036388 -0.014671
v 0.000828 0.036790 -0.011539
v 0.002953 0.037050 -0.013146
v -0.001293 0.037061 -0.013146

vt 0.803891 0.151087
vt 0.803891 0.080917
vt 0.755897 0.080917
vt 0.755897 0.151087
vt 0.851885 0.151087
vt 0.851885 0.080917
vt 0.899879 0.151087
vt 0.899879 0.080917
vt 0.947873 0.151087
vt 0.947873 0.080917
vt 0.995866 0.151087
vt 0.995866 0.080917
vt 0.563923 0.151087
vt 0.563923 0.080917
vt 0.515929 0.080917
vt 0.515929 0.151087
vt 0.611916 0.151087
vt 0.611916 0.080917
vt 0.659910 0.151087
vt 0.659910 0.080917
vt 0.707904 0.151087
vt 0.707904 0.080917
vt 0.761823 0.009735
vt 0.732582 0.020358
vt 0.721413 0.037545
vt 0.827207 0.020358
vt 0.797966 0.009735
vt 0.827207 0.054733
vt 0.838376 0.037545
vt 0.761823 0.065355
vt 0.797966 0.065355
vt 0.732582 0.054733
vt 0.802410 0.072684
vt 0.757379 0.072684
vt 0.850404 0.072684
vt 0.805373 0.072684
vt 0.898398 0.072684
vt 0.853366 0.072684
vt 0.946391 0.072684
vt 0.901360 0.072684
vt 0.994385 0.072684
vt 0.949354 0.072684
vt 0.562441 0.072684
vt 0.517410 0.072684
vt 0.610435 0.072684
vt 0.565404 0.072684
vt 0.658429 0.072684
vt 0.613398 0.072684
vt 0.706422 0.072684
vt 0.661391 0.072684
vt 0.754416 0.072684
vt 0.709385 0.072684
vt 0.845960 0.065355
vt 0.809816 0.065355
vt 0.893954 0.065355
vt 0.857810 0.065355
vt 0.941947 0.065355
vt 0.905804 0.065355
vt 0.989941 0.065355
vt 0.953798 0.065355
vt 0.557998 0.065355
vt 0.521854 0.065355
vt 0.605991 0.065355
vt 0.569847 0.065355
vt 0.653985 0.065355
vt 0.617841 0.065355
vt 0.701979 0.065355
vt 0.665835 0.065355
vt 0.749972 0.065355
vt 0.713829 0.065355
vt 0.768216 0.219955
vt 0.803516 0.172808
vt 0.757800 0.168850
vt 0.757728 0.219047
vt 0.777479 0.222577
vt 0.843891 0.184236
vt 0.784387 0.226625
vt 0.870329 0.199729
vt 0.799917 0.229405
vt 0.863141 0.219453
vt 0.787646 0.231336
vt 0.731047 0.226606
vt 0.645183 0.199648
vt 0.652314 0.219378
vt 0.715509 0.229374
vt 0.727775 0.231314
vt 0.737967 0.222562
vt 0.671665 0.184174
vt 0.747237 0.219947
vt 0.712073 0.172775
vt 0.756696 0.158162
vt 0.803092 0.158162
vt 0.804690 0.158162
vt 0.851086 0.158162
vt 0.852684 0.158162
vt 0.893416 0.158162
vt 0.896095 0.158632
vt 0.945453 0.158634
vt 0.949325 0.158695
vt 0.979114 0.158632
vt 0.532658 0.158635
vt 0.562470 0.158695
vt 0.566342 0.158634
vt 0.615700 0.158632
vt 0.618379 0.158162
vt 0.659111 0.158162
vt 0.660709 0.158162
vt 0.707105 0.158162
vt 0.708703 0.158162
vt 0.755099 0.158162
vt 0.639580 0.014171
vt 0.638109 0.010803
vt 0.623739 0.010803
vt 0.622267 0.014171
vt 0.656894 0.014171
vt 0.655422 0.010803
vt 0.641052 0.010803
vt 0.674208 0.014171
vt 0.672736 0.010803
vt 0.658366 0.010803
vt 0.691521 0.014171
vt 0.690049 0.010803
vt 0.675680 0.010803
vt 0.708835 0.014171
vt 0.707363 0.010803
vt 0.692993 0.010803
vt 0.553012 0.014171
vt 0.551540 0.010803
vt 0.537170 0.010803
vt 0.535698 0.014171
vt 0.570326 0.014171
vt 0.568854 0.010803
vt 0.554484 0.010803
vt 0.587639 0.014171
vt 0.586168 0.010803
vt 0.571797 0.010803
vt 0.604953 0.014171
vt 0.603481 0.010803
vt 0.589111 0.010803
vt 0.620795 0.010803
vt 0.606425 0.010803
vt 0.639580 0.026150
vt 0.622267 0.026150
vt 0.656894 0.026150
vt 0.674208 0.026150
vt 0.691521 0.026150
vt 0.708835 0.026150
vt 0.553012 0.026150
vt 0.535698 0.026150
vt 0.570326 0.026150
vt 0.587639 0.026150
vt 0.604953 0.026150
vt 0.653588 0.047704
vt 0.658938 0.039471
vt 0.653587 0.031238
vt 0.622267 0.052792
vt 0.639581 0.052792
vt 0.602910 0.039471
vt 0.608260 0.047704
vt 0.608260 0.031238
vt 0.621736 0.217770
vt 0.617155 0.232442
vt 0.654456 0.236852
vt 0.631143 0.238568
vt 0.579407 0.232708
vt 0.589255 0.231535
vt 0.588450 0.225860
vt 0.817237 0.236732
vt 0.860949 0.236926
vt 0.698168 0.236689
vt 0.598859 0.223575
vt 0.596253 0.218768
vt 0.893723 0.217868
vt 0.884256 0.238659
vt 0.898267 0.232531
vt 0.570098 0.227244
vt 0.575494 0.221870
vt 0.560536 0.231930
vt 0.562030 0.237374
vt 0.582201 0.217203
vt 0.596649 0.209011
vt 0.586260 0.210807
vt 0.535103 0.181596
vt 0.530214 0.168820
vt 0.517472 0.178914
vt 0.524203 0.185889
vt 0.506617 0.185412
vt 0.511674 0.188721
vt 0.548846 0.182557
vt 0.547557 0.174813
vt 0.562502 0.181786
vt 0.563496 0.177652
vt 0.553460 0.215246
vt 0.549727 0.220424
vt 0.546505 0.226649
vt 0.570498 0.206931
vt 0.560830 0.211208
vt 0.542961 0.213591
vt 0.530339 0.212410

vn 0.495185 0.091141 0.863993
vn 0.664283 -0.146018 0.733080
vn 0.106523 -0.146018 0.983530
vn -0.107229 0.091142 0.990048
vn 0.908456 0.091141 0.407922
vn 0.968310 -0.146018 0.202618
vn 0.971573 0.128558 -0.198791
vn 0.902475 -0.146018 -0.405237
vn 0.657229 0.207605 -0.724534
vn 0.491926 -0.146018 -0.858305
vn 0.172377 0.193696 -0.965799
vn -0.106523 -0.146018 -0.983530
vn -0.488223 0.207592 -0.847670
vn -0.664283 -0.146018 -0.733080
vn 0.012035 0.196633 -0.980403
vn -0.901307 0.166558 -0.399880
vn -0.968310 -0.146018 -0.202619
vn -0.974727 0.091141 0.203961
vn -0.902475 -0.146018 0.405237
vn -0.668685 0.091141 0.737939
vn -0.491926 -0.146018 0.858305
vn -0.074660 -0.988664 -0.130266
vn -0.239261 -0.964993 -0.107435
vn -0.171581 -0.984516 0.035903
vn 0.100819 -0.988664 -0.111261
vn 0.028241 -0.964993 -0.260750
vn 0.159915 -0.984516 0.071807
vn 0.256715 -0.964993 -0.053717
vn -0.014132 -0.991349 0.130486
vn 0.130418 -0.964993 0.227551
vn -0.176112 -0.964993 0.194352
vn 0.476126 -0.288406 0.830738
vn -0.103102 -0.288406 0.951941
vn 0.873490 -0.288406 0.392222
vn 0.937210 -0.288406 -0.196111
vn 0.642948 -0.288406 -0.709535
vn 0.103101 -0.288406 -0.951941
vn -0.476126 -0.288406 -0.830738
vn -0.873490 -0.288406 -0.392222
vn -0.937210 -0.288406 0.196111
vn -0.642948 -0.288406 0.709535
vn 0.037266 -0.938201 0.344079
vn 0.232393 -0.938201 0.256462
vn 0.338755 -0.938201 0.070884
vn 0.315723 -0.938201 -0.141768
vn 0.172096 -0.938201 -0.300270
vn -0.037266 -0.938201 -0.344079
vn -0.232393 -0.938201 -0.256461
vn -0.338754 -0.938201 -0.070884
vn -0.315723 -0.938201 0.141768
vn -0.172096 -0.938201 0.300270
vn 0.414789 0.549895 0.724959
vn 0.622107 0.375504 0.687008
vn 0.099911 0.372875 0.922487
vn -0.090098 0.547598 0.831877
vn 0.756489 0.558205 0.340782
vn 0.904874 0.380987 0.189870
vn 0.809718 0.561475 -0.170597
vn 0.782674 0.527448 -0.330484
vn 0.315898 0.330308 -0.889441
vn 0.245320 0.306853 -0.919598
vn 0.607689 0.411259 -0.679397
vn 0.469971 0.416713 -0.778125
vn 0.710447 0.502562 -0.492642
vn -0.643058 0.401700 -0.652008
vn -0.533322 0.558692 -0.635162
vn -0.365765 0.566500 -0.738440
vn -0.580926 0.478546 -0.658421
vn -0.542565 0.371825 -0.753239
vn -0.726317 0.460722 -0.510096
vn -0.399647 0.463696 -0.790739
vn -0.809409 0.561983 0.170391
vn -0.844036 0.378865 0.379559
vn -0.861279 0.475823 -0.178300
vn -0.806043 0.457634 -0.375322
vn -0.559328 0.552279 0.618174
vn -0.460860 0.374172 0.804738
vn 0.841105 0.426350 -0.332818
vn 0.455319 0.559999 -0.692160
vn 0.458872 0.400453 -0.793142
vn 0.462227 0.213412 -0.860698
vn 0.345148 0.666935 -0.660356
vn -0.362531 0.589561 -0.721796
vn -0.617286 0.404561 -0.674751
vn -0.429276 0.391138 -0.814084
vn -0.824797 0.485544 -0.289753
vn -0.917137 0.382076 -0.113476
vn 0.368301 -0.544288 0.753728
vn 0.486854 -0.688700 0.537276
vn 0.078070 -0.688700 0.720831
vn 0.086343 -0.447428 0.890142
vn 0.740992 -0.544288 0.393296
vn 0.709676 -0.688700 0.148499
vn 0.593066 -0.447429 0.669389
vn 0.830648 -0.544288 -0.117360
vn 0.661425 -0.688701 -0.296998
vn 0.873257 -0.447429 0.192952
vn 0.603026 -0.544288 -0.583190
vn 0.360533 -0.688701 -0.629053
vn 0.819893 -0.447429 -0.357186
vn 0.145068 -0.544288 -0.826260
vn -0.078071 -0.688700 -0.720831
vn 0.453359 -0.447429 -0.770891
vn -0.368301 -0.544288 -0.753727
vn -0.486854 -0.688701 -0.537275
vn -0.086343 -0.447429 -0.890142
vn -0.740992 -0.544288 -0.393296
vn -0.709676 -0.688700 -0.148499
vn -0.593065 -0.447429 -0.669388
vn -0.830649 -0.544288 0.117361
vn -0.661425 -0.688700 0.296999
vn -0.873257 -0.447429 -0.192952
vn -0.603026 -0.544288 0.583190
vn -0.360533 -0.688700 0.629053
vn -0.819894 -0.447429 0.357186
vn -0.145068 -0.544288 0.826261
vn -0.453358 -0.447429 0.770892
vn 0.497255 0.000000 0.867605
vn 0.533361 -0.300853 0.790578
vn 0.146926 -0.183754 0.971930
vn -0.107677 0.000000 0.994186
vn 0.912253 0.000000 0.409627
vn 0.896188 -0.300853 0.326089
vn 0.690152 -0.183754 0.699946
vn 0.978801 -0.000000 -0.204813
vn 0.916702 -0.300853 -0.262954
vn 0.969763 -0.183754 0.160607
vn 0.671480 -0.000000 -0.741022
vn 0.587067 -0.300853 -0.751559
vn 0.878957 -0.183755 -0.440078
vn 0.107677 -0.000000 -0.994186
vn 0.033192 -0.300853 -0.953093
vn 0.452419 -0.183755 -0.872669
vn -0.497255 -0.000000 -0.867604
vn -0.533361 -0.300853 -0.790578
vn -0.146927 -0.183755 -0.971929
vn -0.912253 -0.000000 -0.409627
vn -0.896188 -0.300853 -0.326089
vn -0.690152 -0.183755 -0.699946
vn -0.978801 0.000000 0.204813
vn -0.916702 -0.300853 0.262954
vn -0.969763 -0.183754 -0.160607
vn -0.671480 0.000000 0.741023
vn -0.587066 -0.300853 0.751559
vn -0.878957 -0.183754 0.440078
vn -0.033192 -0.300852 0.953093
vn -0.452419 -0.183754 0.872669
vn 0.000000 1.000000 -0.000000
vn -0.202404 0.950884 -0.234204
vn -0.000483 1.000000 -0.000351
vn -0.162990 0.942589 -0.291479
vn -0.404268 0.618086 -0.674193
vn -0.613428 0.708788 -0.348320
vn -0.222834 0.818657 -0.529288
vn -0.000341 0.939056 -0.343763
vn -0.320836 0.756697 -0.569627
vn -0.200203 0.879253 -0.432241
vn 0.039450 0.935999 -0.349786
vn -0.000000 0.339750 -0.940516
vn -0.000000 0.289295 -0.957240
vn -0.000000 0.271130 -0.962543
vn -0.388059 0.355485 -0.850318
vn -0.522323 0.368973 -0.768789
vn 0.310658 0.868277 -0.386763
vn 0.712491 0.583989 -0.388990
vn 0.241117 0.925419 -0.292339
vn 0.179571 0.929964 -0.320814
vn 0.210602 0.866062 -0.453413
vn 0.117621 0.930225 -0.347629
vn 0.659095 0.747861 -0.079355
vn 0.643764 0.762757 -0.061402
vn 0.652944 0.755720 -0.050515
vn 0.678084 0.728603 -0.096644
vn 0.684621 -0.471263 -0.556062
vn 0.575994 -0.454523 -0.679441
vn 0.774557 -0.475137 -0.417501
vn 0.757763 -0.599475 -0.257731
vn -0.759226 -0.597261 -0.258564
vn -0.774339 -0.474152 -0.419022
vn -0.685150 -0.470286 -0.556237
vn -0.577601 -0.453818 -0.678547
vn -0.657743 0.749185 -0.078077
vn -0.675071 0.731426 -0.096414
vn -0.651948 0.756652 -0.049416
vn -0.744592 0.535518 -0.398501
vn 0.536056 0.182121 -0.824304
vn 0.352031 0.180899 -0.918341
vn 0.531282 0.194241 -0.824627
vn 0.635053 -0.014018 0.772341
vn 0.624601 0.100962 0.774391
vn 0.603169 0.137606 0.785654
vn 0.603988 -0.007555 0.796958
vn -0.535733 0.181953 -0.824550
vn -0.531290 0.193745 -0.824738
vn -0.419587 0.265768 -0.867937
vn -0.381110 0.168426 -0.909059
vn -0.635782 -0.013961 0.771743
vn -0.604535 -0.007385 0.796544
vn -0.603412 0.137402 0.785503
vn -0.625143 0.100440 0.774020
vn 0.700386 0.704734 -0.113178
vn 0.685154 0.717588 -0.125024
vn 0.780200 -0.617621 -0.099154
vn 0.756255 -0.651994 0.054605
vn 0.747692 -0.660903 0.064530
vn 0.738940 -0.669646 0.074438
vn -0.750326 -0.658051 0.063091
vn -0.759833 -0.648037 0.051970
vn -0.781867 -0.615266 -0.100660
vn -0.740582 -0.667857 0.074193
vn -0.681675 0.720968 -0.124598
vn -0.695517 0.709415 -0.113960
vn 0.534902 0.233591 -0.811982
vn 0.553984 0.227039 -0.800972
vn 0.651587 -0.165424 0.740317
vn 0.693720 -0.141425 0.706224
vn -0.552077 0.227394 -0.802186
vn -0.533813 0.233637 -0.812685
vn -0.694988 -0.141012 0.705059
vn -0.652806 -0.165105 0.739313

usemtl Standard_1
f 1/3/3 21/2/2 12/1/1
f 12/1/1 11/4/4 1/3/3
f 21/2/2 22/6/6 13/5/5
f 13/5/5 12/1/1 21/2/2
f 22/6/6 23/8/8 14/7/7
f 14/7/7 13/5/5 22/6/6
f 23/8/8 24/10/10 15/9/9
f 15/9/9 14/7/7 23/8/8
f 24/10/10 25/12/12 55/11/11
f 55/11/11 15/9/9 24/10/10
f 25/15/12 26/14/14 16/13/13
f 16/13/13 55/16/15 25/15/12
f 26/14/14 27/18/17 17/17/16
f 17/17/16 16/13/13 26/14/14
f 27/18/17 28/20/19 18/19/18
f 18/19/18 17/17/16 27/18/17
f 28/20/19 10/22/21 19/21/20
f 19/21/20 18/19/18 28/20/19
f 10/22/21 1/3/3 11/4/4
f 11/4/4 19/21/20 10/22/21
f 9/25/24 8/24/23 7/23/22
f 7/23/22 6/27/26 5/26/25
f 5/26/25 4/29/28 3/28/27
f 3/28/27 2/31/30 20/30/29
f 5/26/25 3/28/27 20/30/29
f 7/23/22 5/26/25 20/30/29
f 9/25/24 7/23/22 20/30/29
f 29/32/31 9/25/24 20/30/29
f 31/33/32 21/2/2 1/3/3
f 1/3/3 30/34/33 31/33/32
f 32/35/34 22/6/6 21/2/2
f 21/2/2 31/36/32 32/35/34
f 33/37/35 23/8/8 22/6/6
f 22/6/6 32/38/34 33/37/35
f 34/39/36 24/10/10 23/8/8
f 23/8/8 33/40/35 34/39/36
f 35/41/37 25/12/12 24/10/10
f 24/10/10 34/42/36 35/41/37
f 36/43/38 26/14/14 25/15/12
f 25/15/12 35/44/37 36/43/38
f 37/45/39 27/18/17 26/14/14
f 26/14/14 36/46/38 37/45/39
f 38/47/40 28/20/19 27/18/17
f 27/18/17 37/48/39 38/47/40
f 39/49/41 10/22/21 28/20/19
f 28/20/19 38/50/40 39/49/41
f 30/51/33 1/3/3 10/22/21
f 10/22/21 39/52/41 30/51/33
f 2/31/30 31/33/43 30/34/42
f 30/34/42 20/30/29 2/31/30
f 3/53/27 32/35/44 31/36/43
f 31/36/43 2/54/30 3/53/27
f 4/55/28 33/37/45 32/38/44
f 32/38/44 3/56/27 4/55/28
f 5/57/25 34/39/46 33/40/45
f 33/40/45 4/58/28 5/57/25
f 6/59/26 35/41/47 34/42/46
f 34/42/46 5/60/25 6/59/26
f 7/61/22 36/43/48 35/44/47
f 35/44/47 6/62/26 7/61/22
f 8/63/23 37/45/49 36/46/48
f 36/46/48 7/64/22 8/63/23
f 9/65/24 38/47/50 37/48/49
f 37/48/49 8/66/23 9/65/24
f 29/67/31 39/49/51 38/50/50
f 38/50/50 9/68/24 29/67/31
f 20/69/29 30/51/42 39/52/51
f 39/52/51 29/70/31 20/69/29
f 50/73/54 51/72/53 41/71/52
f 41/71/52 40/74/55 50/73/54
f 51/72/53 52/76/57 42/75/56
f 42/75/56 41/71/52 51/72/53
f 52/76/57 53/78/59 43/77/58
f 43/77/58 42/75/56 52/76/57
f 53/78/62 54/80/61 83/79/60
f 53/78/62 83/79/60 44/81/63
f 53/78/64 44/81/63 43/77/58
f 81/84/67 57/83/66 47/82/65
f 47/82/70 46/86/69 85/85/68
f 81/84/71 47/82/70 85/85/68
f 57/83/74 58/88/73 48/87/72
f 48/87/72 47/82/75 57/83/74
f 58/88/73 59/90/77 49/89/76
f 49/89/76 48/87/72 58/88/73
f 59/90/77 50/73/54 40/74/55
f 40/74/55 49/89/76 59/90/77
f 12/1/1 51/92/53 50/91/54
f 50/91/54 11/4/4 12/1/1
f 13/5/5 52/94/57 51/93/53
f 51/93/53 12/1/1 13/5/5
f 14/7/7 53/96/78 52/95/57
f 52/95/57 13/5/5 14/7/7
f 15/9/9 80/98/79 53/97/64
f 53/97/64 14/7/7 15/9/9
f 55/11/11 87/100/81 80/99/80
f 80/99/82 15/9/9 55/11/11
f 16/13/13 56/102/84 88/101/83
f 88/101/85 55/16/15 16/13/13
f 17/17/16 57/104/86 56/103/84
f 56/103/84 16/13/13 17/17/16
f 18/19/18 58/106/73 57/105/87
f 57/105/87 17/17/16 18/19/18
f 19/21/20 59/108/77 58/107/73
f 58/107/73 18/19/18 19/21/20
f 11/4/4 50/110/54 59/109/77
f 59/109/77 19/21/20 11/4/4
f 40/113/90 41/112/89 61/111/88
f 61/111/88 60/114/91 40/113/90
f 41/117/89 42/116/93 62/115/92
f 62/115/92 61/111/94 41/117/89
f 42/120/93 43/119/96 63/118/95
f 63/118/95 62/115/97 42/120/93
f 43/123/96 44/122/99 64/121/98
f 64/121/98 63/118/100 43/123/96
f 44/126/99 45/125/102 65/124/101
f 65/124/101 64/121/103 44/126/99
f 45/129/102 46/128/105 66/127/104
f 66/127/104 65/130/106 45/129/102
f 46/133/105 47/132/108 67/131/107
f 67/131/107 66/127/109 46/133/105
f 47/136/108 48/135/111 68/134/110
f 68/134/110 67/131/112 47/136/108
f 48/139/111 49/138/114 69/137/113
f 69/137/113 68/134/115 48/139/111
f 49/141/114 40/140/90 60/114/116
f 60/114/116 69/137/117 49/141/114
f 60/114/120 61/111/119 71/142/118
f 71/142/118 70/143/121 60/114/120
f 61/111/124 62/115/123 72/144/122
f 72/144/122 71/142/118 61/111/124
f 62/115/127 63/118/126 73/145/125
f 73/145/125 72/144/122 62/115/127
f 63/118/130 64/121/129 74/146/128
f 74/146/128 73/145/125 63/118/130
f 64/121/133 65/124/132 75/147/131
f 75/147/131 74/146/128 64/121/133
f 65/130/136 66/127/135 76/148/134
f 76/148/134 75/149/131 65/130/136
f 66/127/139 67/131/138 77/150/137
f 77/150/137 76/148/134 66/127/139
f 67/131/142 68/134/141 78/151/140
f 78/151/140 77/150/137 67/131/142
f 68/134/145 69/137/144 79/152/143
f 79/152/143 78/151/140 68/134/145
f 69/137/147 60/114/146 70/143/121
f 70/143/121 79/152/143 69/137/147
f 72/155/148 73/154/148 74/153/148
f 74/153/148 75/157/148 76/156/148
f 76/156/148 77/159/148 78/158/148
f 78/158/148 79/160/148 70/143/148
f 76/156/148 78/158/148 70/143/148
f 74/153/148 76/156/148 70/143/148
f 72/155/148 74/153/148 70/143/148
f 71/142/148 72/155/148 70/143/148
f 88/162/151 56/161/150 57/83/149
f 88/162/154 57/83/153 81/84/152
f 88/162/157 81/84/156 82/163/155
f 88/162/157 82/163/155 86/164/158
f 45/167/159 44/166/63 83/165/60
f 54/80/61 82/169/161 84/168/160
f 84/168/160 83/79/60 54/80/61
f 84/170/160 82/163/161 81/84/162
f 81/84/71 85/85/163 84/170/160
f 85/172/163 46/171/69 45/167/159
f 54/80/166 53/78/165 80/173/164
f 82/169/155 54/80/166 80/173/167
f 86/174/158 82/169/155 80/173/168
f 86/174/158 80/173/168 87/175/169
f 45/167/172 83/165/171 94/176/170
f 94/176/170 93/177/173 45/167/172
f 84/179/174 95/178/175 94/176/174
f 94/176/177 83/165/176 84/179/174
f 84/181/180 85/172/179 96/180/178
f 96/180/180 95/182/181 84/181/180
f 45/167/184 93/177/183 96/180/182
f 96/180/182 85/172/185 45/167/184
f 87/185/81 55/184/187 97/183/186
f 97/183/186 99/186/188 87/185/81
f 86/187/191 87/185/190 99/186/189
f 99/186/189 98/188/192 86/187/191
f 88/190/195 100/189/194 97/183/193
f 97/183/193 55/184/196 88/190/195
f 86/192/199 98/191/198 100/189/197
f 100/189/197 88/190/200 86/192/199
f 91/194/202 89/193/201 93/177/173
f 93/177/173 94/176/170 91/194/202
f 90/195/205 91/194/204 94/176/203
f 94/176/203 95/178/206 90/195/205
f 96/180/209 92/197/208 90/196/207
f 90/196/207 95/182/210 96/180/209
f 93/177/183 89/193/212 92/197/211
f 92/197/211 96/180/182 93/177/183
f 97/183/186 89/193/214 91/198/213
f 91/198/213 99/186/188 97/183/186
f 99/186/189 91/198/216 90/199/215
f 90/199/215 98/188/192 99/186/189
f 92/197/218 89/193/217 97/183/193
f 97/183/193 100/189/194 92/197/218
f 90/196/220 92/197/219 100/189/197
f 100/189/197 98/191/198 90/196/220

usemtl default

